# xmcd
#
# Track frame offsets:
#	150
#	28699
#	39062
#	61454
#	91981
#	141647
#	175744
#	201569
#	241045
#	286020
#
# Disc length: 4159 seconds
#
# Revision: 1
# Processed by: cddbd v1.5.1PL2 Copyright (c) Steve Scherf et al.
# Submitted via: EasyCDDAExtractor 9.0.0.1
#
DISCID=87103d0a
DTITLE=Alice Cooper - Community Center Convention Hall Tucson 16-02-72
DYEAR=1972
DGENRE=Hard Rock
TTITLE0=Intro - Be My Lover
TTITLE1=You Drive Me Nervous
TTITLE2=Yeah Yeah Yeah
TTITLE3=I'm Eighteen
TTITLE4=Halo Of Flies
TTITLE5=Is It My Body - My Very Own
TTITLE6=Dead Babies
TTITLE7=Killer
TTITLE8=Long Way To Go - School's Out
TTITLE9=Under My Wheels
EXTD=
EXTT0=
EXTT1=
EXTT2=
EXTT3=
EXTT4=
EXTT5=
EXTT6=
EXTT7=
EXTT8=
EXTT9=
PLAYORDER=
